# Blender 4.0.2
# www.blender.org
mtllib pyramid.mtl
o Plane
v -0.500000 -0.500000 -0.500000
v 0.000000 0.500000 0.000000
v 0.500000 -0.500000 -0.500000
v -0.500000 -0.500000 0.500000
v 0.500000 -0.500000 0.500000
vn -0.0000 0.4472 -0.8944
vn -0.8944 0.4472 -0.0000
vn -0.0000 0.4472 0.8944
vn 0.8944 0.4472 -0.0000
vn -0.0000 -1.0000 -0.0000
vt 0.000000 0.000000
vt 1.000000 1.000000
vt 0.000000 1.000000
s 0
f 2/1/1 3/2/1 1/3/1
f 4/1/2 2/1/2 1/3/2
f 2/1/3 4/1/3 5/2/3
f 3/2/4 2/1/4 5/2/4
f 5/2/5 4/1/5 1/3/5 3/2/5
